<svg width="101" height="101" viewBox="0 0 101 101" fill="none" xmlns="http://www.w3.org/2000/svg">
<path d="M72.8234 34.476C74.3645 36.0172 74.3645 38.5153 72.8234 40.0557L46.3559 66.524C44.8147 68.0643 42.3173 68.0643 40.7762 66.524L28.1766 53.9236C26.6355 52.3833 26.6355 49.8851 28.1766 48.3447C29.717 46.8036 32.2152 46.8036 33.7555 48.3447L43.5657 58.1548L67.2437 34.476C68.7848 32.9357 71.283 32.9357 72.8234 34.476ZM101 50.5C101 78.4139 78.41 101 50.5 101C22.5861 101 0 78.41 0 50.5C0 22.5861 22.59 0 50.5 0C78.4139 0 101 22.59 101 50.5ZM93.1094 50.5C93.1094 26.9476 74.0494 7.89062 50.5 7.89062C26.9476 7.89062 7.89062 26.9506 7.89062 50.5C7.89062 74.0524 26.9506 93.1094 50.5 93.1094C74.0524 93.1094 93.1094 74.0494 93.1094 50.5Z" fill="#32BC50"/>
</svg>
