<svg width="95" height="95" viewBox="0 0 95 95" fill="none" xmlns="http://www.w3.org/2000/svg">
<path d="M47.5 0C21.2466 0 0 21.2446 0 47.5C0 73.7536 21.2446 95 47.5 95C73.7534 95 95 73.7554 95 47.5C95 21.2464 73.7554 0 47.5 0ZM47.5 87.5781C25.3487 87.5781 7.42188 69.653 7.42188 47.5C7.42188 25.3485 25.347 7.42188 47.5 7.42188C69.6513 7.42188 87.5781 25.347 87.5781 47.5C87.5781 69.6515 69.653 87.5781 47.5 87.5781Z" fill="#EB0000"/>
<path d="M63.7513 58.5037L52.748 47.5004L63.7513 36.4971C65.2004 35.048 65.2006 32.6984 63.7515 31.2491C62.302 29.7998 59.9524 29.8 58.5035 31.2491L47.5 42.2524L36.4965 31.2491C35.0476 29.7998 32.6976 29.7998 31.2485 31.2491C29.7994 32.6984 29.7994 35.048 31.2487 36.4971L42.252 47.5004L31.2487 58.5037C29.7994 59.953 29.7992 62.3026 31.2485 63.7517C32.6982 65.2012 35.0478 65.2006 36.4965 63.7517L47.5 52.7484L58.5035 63.7517C59.9522 65.2008 62.3022 65.201 63.7515 63.7517C65.2008 62.3024 65.2006 59.9528 63.7513 58.5037Z" fill="#EB0000"/>
</svg>
