<svg width="45" height="41" viewBox="0 0 45 41" fill="none" xmlns="http://www.w3.org/2000/svg">
<path d="M40.591 32.1156H43.2968C44.2361 32.1156 45 31.3517 45 30.4124C45 29.4734 44.2361 28.7095 43.2968 28.7095H28.9737C28.6098 28.7095 28.3145 29.0048 28.3145 29.3687C28.3145 29.7326 28.6098 30.0279 28.9737 30.0279H43.2968C43.5089 30.0279 43.6816 30.2002 43.6816 30.4124C43.6816 30.6246 43.5089 30.7973 43.2968 30.7973H19.8986C19.1831 30.7973 18.5312 30.4038 18.1975 29.7704C17.8641 29.1373 17.908 28.3775 18.3121 27.7874L19.2679 26.3918L20.2838 26.2706L18.9466 28.2224C18.7004 28.5822 18.675 29.0268 18.8779 29.412C19.0815 29.7975 19.4633 30.0279 19.8986 30.0279H26.337C26.7012 30.0279 26.9961 29.7326 26.9961 29.3687C26.9961 29.0048 26.7012 28.7095 26.337 28.7095H20.2111L21.7457 26.47C21.8312 26.3454 21.8981 26.2115 21.9472 26.0721L36.8811 24.2889L39.719 23.9507C41.8572 23.6946 43.4695 21.8781 43.4695 19.7255V17.2975C43.4695 16.9336 43.1742 16.6383 42.8103 16.6383C42.4464 16.6383 42.1511 16.9336 42.1511 17.2975V17.6164L34.1355 18.1465L33.8053 14.2632L42.1511 14.2131V14.6505C42.1511 15.0144 42.4464 15.3096 42.8103 15.3096C43.1742 15.3096 43.4695 15.0144 43.4695 14.6505V13.5539C43.4695 13.5511 43.4698 13.5487 43.4698 13.546C43.4698 13.5439 43.4695 13.5419 43.4695 13.5398V9.92532C43.4695 8.98049 42.7306 8.20149 41.7875 8.15171L22.5999 7.13548C22.592 7.13513 22.5841 7.13445 22.5762 7.13445L13.0353 6.62908L12.887 5.96166C12.6497 4.89255 11.8003 4.07407 10.7233 3.87666L8.60057 3.48767L8.69876 2.9308C8.73481 2.7255 8.68914 2.51847 8.56967 2.34818C8.45019 2.17755 8.27132 2.06391 8.06636 2.02752L2.34763 1.01918C1.82166 0.926485 1.29088 1.0439 0.853145 1.35049C0.415408 1.65708 0.123241 2.11541 0.0305436 2.64172C-0.161031 3.728 0.566814 4.76724 1.65309 4.95881L7.37181 5.96715C7.41748 5.97505 7.46279 5.97917 7.50743 5.97917C7.87822 5.97917 8.2078 5.71275 8.27475 5.33509L8.37157 4.78578L10.4858 5.17304C11.0406 5.27467 11.478 5.69627 11.6002 6.24696L15.271 22.7924C15.271 22.7927 15.2713 22.7934 15.2713 22.7937L15.8357 25.3378C16.0019 26.0865 16.659 26.6022 17.4075 26.6022C17.448 26.6022 17.4885 26.6002 17.5294 26.5971L17.2245 27.0424C16.543 28.0373 16.4688 29.3182 17.0312 30.385C17.5939 31.4523 18.6925 32.1153 19.8986 32.1153H20.6392V32.4597C18.813 32.7738 17.4188 34.3678 17.4188 36.2822C17.4188 38.4215 19.1591 40.1618 21.2984 40.1618C23.4373 40.1618 25.1779 38.4215 25.1779 36.2822C25.1779 35.3264 24.827 34.408 24.1902 33.6963C23.9474 33.4251 23.531 33.4017 23.2594 33.6445C22.9882 33.8872 22.9648 34.304 23.2079 34.5752C23.6281 35.0449 23.8595 35.6512 23.8595 36.2822C23.8595 37.6946 22.7104 38.8434 21.2984 38.8434C19.8863 38.8434 18.7372 37.6946 18.7372 36.2822C18.7372 35.0977 19.5454 34.099 20.6392 33.8075V34.5498C19.9409 34.8162 19.4427 35.4915 19.4427 36.2822C19.4427 37.3057 20.2749 38.1382 21.2984 38.1382C22.3218 38.1382 23.154 37.3057 23.154 36.2822C23.154 35.4915 22.6559 34.8166 21.9575 34.5498V32.1156H39.2727V32.46C37.4465 32.7738 36.0523 34.3678 36.0523 36.2822C36.0523 38.4215 37.7926 40.1621 39.9319 40.1621C42.0711 40.1621 43.8114 38.4215 43.8114 36.2822C43.8114 35.3264 43.4609 34.408 42.824 33.6963C42.5813 33.4251 42.1645 33.4021 41.8933 33.6448C41.622 33.8875 41.5987 34.304 41.8414 34.5756C42.2616 35.0452 42.4934 35.6512 42.4934 36.2822C42.4934 37.6946 41.3443 38.8437 39.9322 38.8437C38.5198 38.8437 37.3707 37.6946 37.3707 36.2822C37.3707 35.0981 38.1792 34.099 39.273 33.8075V34.5498C38.5744 34.8162 38.0762 35.4915 38.0762 36.2822C38.0762 37.3057 38.9088 38.1382 39.9322 38.1382C40.9553 38.1382 41.7879 37.3057 41.7879 36.2822C41.7879 35.4915 41.2897 34.8166 40.5914 34.5498V32.1156H40.591ZM1.88208 3.66036C1.51164 3.59513 1.26376 3.24082 1.32899 2.87072C1.36058 2.69116 1.46014 2.53495 1.60914 2.43024C1.72518 2.34921 1.86011 2.30699 1.99881 2.30699C2.03864 2.30699 2.07881 2.31042 2.11863 2.31763L7.30658 3.23224L7.06969 4.57532L1.88208 3.66036ZM25.8165 24.2824L25.1525 20.0612L32.9315 19.5469L33.2587 23.3939L25.8165 24.2824ZM42.1511 18.9379V19.7251C42.1511 21.211 41.038 22.4648 39.5628 22.6413L34.5685 23.2377L34.2471 19.4601L42.1511 18.9379ZM32.8196 18.2334L24.9468 18.7535L24.2492 14.3202L32.4828 14.2711L32.8196 18.2334ZM14.7543 14.3772L22.9161 14.3281L23.6261 18.8411L15.8584 19.3543L14.7543 14.3772ZM32.0306 8.95509L32.3709 12.9531L24.0422 13.0029L23.3329 8.49435L32.0306 8.95509ZM42.1511 9.92497V12.8947L33.6933 12.9452L33.36 9.02547L41.7178 9.46801C41.9609 9.48106 42.1511 9.68156 42.1511 9.92497ZM21.9871 8.42328L22.7091 13.0111L14.4621 13.0605L13.3319 7.96494L21.9871 8.42328ZM17.1225 25.0521L16.1475 20.6566L23.8317 20.1484L24.5067 24.4386L21.3121 24.82C21.31 24.8204 21.308 24.8204 21.3063 24.8204L18.8148 25.118C18.8134 25.118 18.812 25.1184 18.8106 25.1187L17.4463 25.2815C17.2949 25.2993 17.1558 25.2011 17.1225 25.0521ZM21.298 36.8199C21.0017 36.8199 20.7607 36.5785 20.7607 36.2822C20.7607 35.9859 21.0017 35.7449 21.298 35.7449C21.5946 35.7449 21.8357 35.9859 21.8357 36.2822C21.8357 36.5785 21.5943 36.8199 21.298 36.8199ZM39.9319 36.8199C39.6356 36.8199 39.3942 36.5785 39.3942 36.2822C39.3942 35.9859 39.6356 35.7449 39.9319 35.7449C40.2281 35.7449 40.4692 35.9859 40.4692 36.2822C40.4692 36.5785 40.2281 36.8199 39.9319 36.8199Z" fill="black"/>
</svg>
