<svg width="137" height="137" viewBox="0 0 137 137" fill="none" xmlns="http://www.w3.org/2000/svg">
<path d="M122.589 21.2244C111.268 8.03096 94.8049 0.464844 77.4175 0.464844C60.0111 0.464844 43.5459 8.03297 32.2537 21.217C22.9455 32.0077 17.8183 45.8033 17.8183 60.0645C17.8183 62.651 17.992 65.2208 18.3235 67.7614H26.2241C25.985 66.1745 25.7941 64.5779 25.7032 62.9655H44.0106C44.0538 64.5923 44.1713 66.1763 44.2859 67.7614H50.1295C50.0016 66.1769 49.8821 64.5876 49.8333 62.9655H74.5018V76.6478C75.8085 77.2233 77.0162 78.029 78.0613 79.0614L80.318 81.2946V62.9653H104.988C104.743 71.1331 103.47 78.8694 101.423 85.7104C95.2748 84.1387 88.7547 83.2341 81.9855 82.9444L88.4906 89.3807C92.2778 89.8054 95.9848 90.4241 99.5119 91.2909C98.6407 93.5147 97.6687 95.5843 96.6322 97.5273C98.2765 99.5324 99.2258 102.06 99.3127 104.66C101.593 101.239 103.603 97.29 105.274 92.8892C108.479 93.9405 111.445 95.1782 114.159 96.5856C109.829 100.946 104.805 104.463 99.3322 107.021V115.475C108.209 111.965 116.21 106.329 122.583 98.9141C131.88 88.1363 137 74.3407 137 60.0643C137 45.7897 131.88 31.9943 122.589 21.2244ZM44.0106 57.1486H25.7041C26.3042 46.5376 30.1563 36.3779 36.7523 28.0276C40.07 29.8504 43.7435 31.4139 47.71 32.7252C45.5545 40.0471 44.2459 48.309 44.0106 57.1486ZM49.5465 27.2311C46.3523 26.177 43.3923 24.939 40.6794 23.5346C45.6691 18.496 51.5879 14.5772 58.0629 11.9704C54.7067 16.0822 51.8169 21.2479 49.5465 27.2311ZM74.5018 57.1486H49.8333C50.0787 48.9832 51.351 41.2492 53.3964 34.4097C60.068 36.1036 67.1428 37.0568 74.5016 37.2561V57.1486H74.5018ZM74.5018 31.3286C67.8743 31.1394 61.3489 30.3064 55.3075 28.8301C59.2279 18.8195 64.936 11.4392 71.4298 8.57381C72.4486 8.45584 73.4718 8.36182 74.5016 8.30406L74.5018 31.3286ZM129.114 57.1486H110.811C110.576 48.3107 109.268 40.0498 107.113 32.7288C111.092 31.4125 114.77 29.8484 118.083 28.0285C124.667 36.3626 128.515 46.5244 129.114 57.1486ZM80.3183 8.30317C81.3473 8.36048 82.3695 8.45472 83.3876 8.57269C89.8843 11.4369 95.594 18.8197 99.5157 28.8339C93.4756 30.3091 86.9489 31.1414 80.3183 31.3292V8.30317ZM80.3183 57.1486V37.2563C87.6784 37.0582 94.7554 36.1061 101.427 34.414C103.471 41.2526 104.743 48.985 104.989 57.1486H80.3183ZM96.7592 11.9713C103.233 14.5783 109.154 18.4976 114.153 23.5373C111.442 24.9379 108.479 26.1756 105.276 27.2336C103.006 21.2494 100.115 16.0835 96.7592 11.9713ZM118.089 92.0966C114.77 90.2672 111.088 88.7025 107.11 87.3954C109.267 80.0717 110.576 71.8071 110.811 62.965H129.115C128.519 73.5919 124.673 83.7564 118.089 92.0966ZM93.5146 108.351V105.049C93.5146 103.44 92.871 101.897 91.7269 100.765L73.9724 83.199C72.8442 82.0826 71.321 81.4565 69.7339 81.4565H60.7761V78.0968C60.7761 75.6006 58.7524 73.5772 56.2562 73.5772H4.51966C2.02344 73.5769 0 75.6006 0 78.0968V108.35H93.5146V108.351ZM66.0947 87.3775C66.0947 86.9859 66.4112 86.6694 66.8027 86.6694H70.0719C70.2528 86.6694 70.4334 86.7448 70.5691 86.8653L84.4751 100.138C84.942 100.575 84.6257 101.359 83.9931 101.359H66.8027C66.411 101.359 66.0947 101.042 66.0947 100.651V87.3775ZM93.5146 110.848V120.854C93.5146 123.35 91.4909 125.374 88.9949 125.374H84.1587C83.285 119.377 78.1173 114.767 71.8798 114.767C65.6577 114.767 60.49 119.378 59.616 125.374H35.1038C34.2301 119.377 29.0621 114.767 22.84 114.767C16.618 114.767 11.4502 119.378 10.5763 125.374H4.51966C2.02344 125.374 0 123.35 0 120.854V110.848H93.5146ZM71.8867 117.787C66.7094 117.787 62.5123 121.984 62.5123 127.161C62.5123 132.338 66.7094 136.535 71.8867 136.535C77.0638 136.535 81.2611 132.338 81.2611 127.161C81.2611 121.984 77.0638 117.787 71.8867 117.787ZM71.8867 131.848C69.298 131.848 67.1996 129.749 67.1996 127.161C67.1996 124.573 69.298 122.474 71.8867 122.474C74.4752 122.474 76.5738 124.572 76.5738 127.161C76.5738 129.75 74.4752 131.848 71.8867 131.848ZM22.8383 117.787C17.6611 117.787 13.4641 121.984 13.4641 127.161C13.4641 132.338 17.6611 136.535 22.8383 136.535C28.0156 136.535 32.2127 132.338 32.2127 127.161C32.2127 121.984 28.0156 117.787 22.8383 117.787ZM22.8383 131.848C20.2498 131.848 18.1512 129.749 18.1512 127.161C18.1512 124.573 20.2498 122.474 22.8383 122.474C25.4269 122.474 27.5254 124.572 27.5254 127.161C27.5254 129.75 25.4269 131.848 22.8383 131.848Z" fill="#EF5B25"/>
</svg>
