<svg width="25" height="25" viewBox="0 0 25 25" fill="none" xmlns="http://www.w3.org/2000/svg">
<path d="M23.3975 4.48735H1.60259C0.717285 4.48735 0 3.77007 0 2.88481C0 1.99956 0.717285 1.28223 1.60259 1.28223H23.3975C24.2827 1.28223 25 1.99951 25 2.88481C25 3.77012 24.2827 4.48735 23.3975 4.48735Z" fill="white"/>
<path d="M14.4231 14.1026H1.60259C0.717285 14.1026 0 13.3853 0 12.5C0 11.6148 0.717285 10.8975 1.60259 10.8975H14.4231C15.3083 10.8975 16.0257 11.6147 16.0257 12.5C16.0257 13.3853 15.3083 14.1026 14.4231 14.1026Z" fill="white"/>
<path d="M23.3974 14.1026H20.8333C19.948 14.1026 19.2307 13.3853 19.2307 12.5C19.2307 11.6147 19.948 10.8975 20.8333 10.8975H23.3974C24.2827 10.8975 25 11.6147 25 12.5C25 13.3853 24.2827 14.1026 23.3974 14.1026Z" fill="white"/>
<path d="M23.3975 23.7179H1.60259C0.717285 23.7179 0 23.0005 0 22.1153C0 21.23 0.717285 20.5127 1.60259 20.5127H23.3975C24.2827 20.5127 25 21.23 25 22.1153C25 23.0005 24.2827 23.7179 23.3975 23.7179Z" fill="white"/>
</svg>
