<svg width="21" height="23" viewBox="0 0 21 23" fill="none" xmlns="http://www.w3.org/2000/svg">
<path d="M18.8154 18.9668L17.8776 6.02411C17.8191 5.19027 17.1752 4.53706 16.4117 4.53706H14.5593V4.44587C14.5593 1.9944 12.7383 0 10.5 0C8.26173 0 6.44076 1.9944 6.44076 4.44587V4.53706H4.58841C3.82483 4.53706 3.18092 5.19023 3.12268 6.02236L2.18457 18.9686C2.11197 20.0051 2.4403 21.0371 3.08531 21.7998C3.73033 22.5625 4.64469 23 5.59391 23H15.4061C16.3553 23 17.2697 22.5625 17.9148 21.7998C18.5598 21.0371 18.8881 20.0051 18.8154 18.9668ZM7.67082 4.44587C7.67082 2.73727 8.94005 1.34721 10.5 1.34721C12.06 1.34721 13.3293 2.73731 13.3293 4.44587V4.53706H7.67082V4.44587ZM17.0123 20.8844C16.5932 21.3799 16.0228 21.6528 15.4061 21.6528H5.59395C4.97724 21.6528 4.40688 21.3799 3.98778 20.8844C3.56872 20.3889 3.36389 19.7451 3.41098 19.0734L4.34901 6.12712C4.35852 5.99092 4.46369 5.88427 4.58841 5.88427H6.44076V7.54346C6.44076 7.91546 6.71614 8.21706 7.05579 8.21706C7.39544 8.21706 7.67082 7.91546 7.67082 7.54346V5.88427H13.3293V7.54346C13.3293 7.91546 13.6046 8.21706 13.9443 8.21706C14.2839 8.21706 14.5593 7.91546 14.5593 7.54346V5.88427H16.4117C16.5364 5.88427 16.6415 5.99096 16.6512 6.12892L17.5891 19.0716C17.6362 19.7451 17.4313 20.3888 17.0123 20.8844Z" fill="white"/>
<path d="M13.2709 11.4229C13.0307 11.1598 12.6413 11.1598 12.4012 11.4229L9.65491 14.4307L8.59892 13.2741C8.35878 13.011 7.96934 13.011 7.72915 13.2741C7.48896 13.5372 7.48896 13.9637 7.72915 14.2267L9.22002 15.8596C9.34012 15.9911 9.49754 16.0569 9.65487 16.0569C9.81221 16.0569 9.96967 15.9912 10.0897 15.8596L13.2708 12.3755C13.511 12.1124 13.511 11.6859 13.2709 11.4229Z" fill="white"/>
</svg>
